# xmcd CD database file
#
# Track frame offsets:
#	150
#	17267
#	42425
#	62552
#	83662
#	104625
#	125300
#	142562
#	163187
#	184250
#	200550
#	221587
#
# Disc length: 3204 seconds
#
# Revision: 1
# Processed by: cddbd v1.5.1PL0 Copyright (c) Steve Scherf et al.
# Submitted via: CDex 1.51
#
DISCID=9f0c820c
DTITLE=宗次郎 - サンクチュアリー SANCTUARY
DYEAR=1996
DGENRE=Other
TTITLE0=若葉の頃 EARLY BLOOMS
TTITLE1=朝の輝き MORNING GLOW
TTITLE2=秋桜 PASTEL GREEN
TTITLE3=新樹光 NEW IGHT
TTITLE4=季節の詩 POEM
TTITLE5=白嶺 THE NATURAL WORLD
TTITLE6=めぐり逢いFOR LOVE
TTITLE7=花の精 IN THE GARDEN
TTITLE8=冬河 WINTER FLOW
TTITLE9=朝日の中で SUNLIGHT
TTITLE10=光のなかで INNER LIGHT
TTITLE11=火・土・水 SOUND OF NATURE
EXTD=YEAR: 1996
EXTT0=
EXTT1=
EXTT2=
EXTT3=
EXTT4=
EXTT5=
EXTT6=
EXTT7=
EXTT8=
EXTT9=
EXTT10=
EXTT11=
PLAYORDER=
